<svg xmlns:xlink="http://www.w3.org/1999/xlink" xmlns="http://www.w3.org/2000/svg" pointer-events="all" class="svg-icon svg-drm-epic-games" width="32"  height="37.5" ><defs><symbol id="svg-drm-epic-games" viewBox="0 0 2222 2604">
	<g fill="currentColor">
	<path d="M171.4 1C78.5 6.5 30.4 39.4 10.6 110.8c-5.3 19.1-8.1 38.5-9.7 66.7-.7 13-.9 308.2-.7 939 .3 862.4.4 921.1 2.1 937.5.9 9.6 2.4 22 3.3 27.5 7.2 44.6 36.6 79.5 90.7 107.5 14.6 7.6 25 12.2 99.2 44.2 149.2 64.3 821.5 348.1 849.9 358.7 19.3 7.3 31.1 9.9 50.9 11.3 37.1 2.7 62.9-2.3 101.6-19.3 7.5-3.3 56.6-23.6 109.1-45.1 504.4-206.2 758.9-315 811.3-347.1 56.5-34.6 89.4-85.1 101.4-155.7 1.7-10 1.8-52.1 2.1-925 .2-626.1 0-920.5-.7-933.5-2.4-43.5-9.2-73.9-22.2-99.4-25.1-49.4-69.4-72.2-149.4-77.1C2029.9-.1 191.4-.2 171.4 1zM707 429.5V505H506v253h201v152H506v303h201v151l-176.7-.2-176.8-.3-.3-504.8L353 354h354v75.5zm311.2-74c41.3 4.8 73.1 18.7 96.4 41.9 26 26.1 39.8 59.6 45.6 110.8 1 8.7 1.3 46.9 1.3 167.8 0 171.3.1 167.9-6 196.6-13.4 63.5-50.1 103-109.5 117.8-21.9 5.5-27.4 5.9-84.2 6.3l-52.8.5V1364H758V354h123.8c103.2 0 125.8.2 136.4 1.5zm345.6 503.2-.3 504.8-75.7.3-75.8.2V354h152l-.2 504.7zM1692.2 355c22.7 1.1 36.3 2.9 53.5 7 55.6 13.4 93 46.1 110.7 96.7 4.2 12.1 7.9 28.6 10.2 44.8 1.5 10.6 1.8 26.3 2.1 133.2l.4 121.3h-152l-.3-112.8c-.3-112.1-.4-112.7-2.5-120.4-5.7-20.2-15.6-29.5-35.7-33.3-11.1-2.1-58.5-2.1-67.5 0-16.1 3.8-30 14.5-37 28.6-2.2 4.3-4.8 11.3-5.8 15.6-1.7 7.5-1.8 21.5-1.8 330.3v322.5l2.4 7.9c5.6 18.1 16.6 28.2 36.8 33.8 7.2 2 10.2 2.2 37.3 2.2 27.9.1 29.9 0 37.5-2.2 4.4-1.3 10.1-3.5 12.7-4.9 6.6-3.6 14.3-12.1 17.9-19.6 6-12.9 5.9-11.1 5.9-133.8V960h152v113.2c0 112.8-.5 133.3-3.6 153.3-6.1 39.3-20.7 69.9-43.8 92.3-23.9 23-54.2 36.3-98.1 42.9-10.7 1.6-19.5 1.8-82 1.8-74.2 0-75.4-.1-100.3-5.1-52.2-10.4-88.4-36.8-108.3-78.9-8.1-17.1-12.8-33.8-16.6-59-1.7-11.4-1.8-29.1-1.8-352 0-321 .1-340.7 1.8-352.5 3.5-24.3 9.2-46.1 16.8-63.3 26.4-60 79.7-93.8 153.9-97.6 21.6-1.2 82.7-1.2 105.2-.1zM494.5 1618.5c26.3 4.5 42.8 10.7 63.9 23.7 8.7 5.3 21.6 14.8 21.6 15.8 0 .3-1.7 2.6-3.9 5.1-4.3 4.9-11.5 13.5-29.4 35.1-6.7 8.1-12.5 14.7-12.9 14.8-.4 0-4.4-2.7-9-6-10.8-7.7-26.2-15.5-36.3-18.2-6.6-1.7-11-2.1-25-2.2-16.1-.1-17.5.1-25.6 2.7-27 8.9-46.8 32.4-52.5 62.4-2.1 11-1.4 29.3 1.5 40.3 8.2 31.7 31.4 52.9 64.3 58.6 18.1 3.2 42.9-.3 57.8-8.2l7-3.6V1802h-60v-58h135v129.8l-6.7 5c-12 8.7-18.8 13-28.9 18-34.6 17.4-61.6 23.3-100.8 21.9-27.8-1-46.4-5.6-70.1-17.3-42.2-20.8-70.7-58.3-79.2-104.4-2.1-11.3-2.8-34.8-1.4-47 3-26.5 15-55 32.3-76.7 22.7-28.6 62-50.3 99.8-55.2 4.7-.6 9.6-1.3 11-1.5 5.3-1 38.9.4 47.5 1.9zm1268.9-.4c11 .9 26.3 3.8 39.3 7.3 14.2 3.9 35.9 14.6 49.6 24.4l7.7 5.5-1.6 2.6c-.9 1.4-3.3 4.8-5.4 7.6-3.3 4.5-24.3 34.1-29.9 42.2l-2.2 3.2-6.9-4.4c-27.7-17.7-62.2-27.4-84.5-23.6-15.4 2.6-23.4 12-21.1 24.6 2.1 10.9 13.8 16.4 59.1 27.5 36.6 9 56.5 16.8 71.7 28.3 9 6.9 12.3 10.3 18.2 19.2 11.2 16.8 14.3 43.1 8.1 67.2-7.6 29.2-29.5 50.6-62.6 61.2-48.3 15.4-113.9 7.1-160.3-20.3-9.4-5.6-26.6-18.3-26.6-19.8 0-.9 8.7-11.5 22-26.8 3.6-4.1 9.8-11.4 13.8-16.3 4-4.8 7.5-8.7 7.7-8.7.2 0 5.5 3.4 11.7 7.6 26.1 17.6 53.3 26.4 81.2 26.4 25.7 0 36.6-6.6 36.6-22.1 0-14.8-9.3-19.6-64.5-33-38.4-9.3-59.4-18.8-74.6-33.9-9.6-9.5-14.4-17.3-18.1-29-2-6.6-2.3-9.5-2.3-24.5 0-13.4.4-18.4 1.9-23.9 7.7-28.6 28.5-50.3 58.4-61.1 8.5-3.1 22.7-6.5 31.2-7.5 9.8-1.1 29-1.1 42.4.1zm-938.4 9.6c4.6 10.8 15.1 35.3 21.5 50.3 12.6 29.3 15.9 37 19.5 45.5 2 4.9 6.1 14.4 8.9 21 2.9 6.6 7.7 17.8 10.8 25 3 7.1 8.4 19.5 11.8 27.5 3.5 8 12.2 28.4 19.5 45.5 7.2 17 15.9 37.3 19.2 45 10.4 24.2 10.8 25.2 10.8 25.9 0 .3-18.8.5-41.7.4l-41.7-.3-7.3-18c-4.1-9.9-9-22.2-11-27.3l-3.7-9.2-58.5.2-58.5.3-5.3 13c-2.9 7.1-7.6 18.8-10.5 26-2.9 7.1-5.6 13.6-6.1 14.2-.7 1-10.2 1.3-41.3 1.3-22.2 0-40.4-.3-40.4-.7 0-.8 4.6-11.8 13-31.3 15-34.5 19-43.9 19-44.4 0-.4 2.5-6.1 5.5-12.9 3-6.7 13.5-31.1 23.4-54.2 9.8-23.1 18.6-43.6 19.4-45.5.8-1.9 3.5-8.2 6.1-14 7.5-17.4 17.6-41 21.1-49.5 1.8-4.4 5.3-12.6 7.9-18.3 2.5-5.6 4.6-10.5 4.6-10.8 0-.4 1.2-3.3 2.6-6.5l2.7-5.9h75.4l3.3 7.7zm247 7.5c4.6 7.3 10.6 16.9 13.3 21.3 2.8 4.4 6.7 10.7 8.8 14 2.2 3.3 6.4 10 9.4 15 3.1 4.9 8 12.8 11 17.5 2.9 4.7 6.6 10.5 8.1 13 7.9 13 12.8 20 13.5 19.3.4-.4 5.1-7.8 10.5-16.3 17.9-28.6 46.7-74.4 51.2-81.5 2.4-3.9 5.6-8.9 7-11.3l2.7-4.2h83.5v292h-78l-.2-86.3-.3-86.2-16.3 24.5c-8.9 13.5-26.2 39.7-38.5 58.2-12.2 18.6-22.6 33.6-23.2 33.5-.5-.2-5.6-7.3-11.2-15.8-5.5-8.5-16.7-25.3-24.6-37.4-8-12.1-20.4-31-27.6-42l-13.1-20-.2 85.5-.3 85.5h-77l-.3-145.8-.2-145.7h83.7l8.3 13.2zm514 19.8v33h-158l.2 23.7.3 23.8 70.8.3 70.7.2v62h-142v49l79.8.2 79.7.3v66l-118.2.3-118.3.2v-292h235v33zm-73.1 619.4c-.7.7-400.7 149.6-401.7 149.6-.8 0-350.6-130.2-399.2-148.5-2.9-1.1 64.2-1.4 398.9-1.4 221.3-.1 402.2.1 402 .3z"></path>
	<path d="M909 674v185h26.8c42.7 0 52.1-1.8 61.8-11.4 5.4-5.4 8.5-11.9 10.7-22.6.9-4.1 1.2-43.5 1.2-150 0-135.9-.1-145-1.8-152.2-3.7-15.6-11.1-25.6-22.2-29.7-8.4-3.2-19.8-4.1-49.2-4.1H909v185zM779.2 1722.2c-2.3 5.7-8.9 22-14.7 36.3-5.9 14.3-11.8 28.8-13.1 32.2l-2.4 6.3h34c18.7 0 34-.2 34-.3 0-.6-17.8-45.7-19.5-49.4-.7-1.7-4.2-10.2-7.5-19-3.4-8.7-6.3-15.9-6.5-16.1-.1-.2-2.1 4.3-4.3 10z"></path>
	</g>
</symbol></defs><use xlink:href="#svg-drm-epic-games"></use></svg>