<svg xmlns:xlink="http://www.w3.org/1999/xlink" xmlns="http://www.w3.org/2000/svg" class="size-32 svg-icon svg-icon-connection-gog" pointer-events="all" width="34"  height="31" ><defs><symbol id="svg-icon-connection-gog" viewBox="0 0 34 31">
	<path class="cls-1" d="M31 31H3a3 3 0 0 1-3-3V3a3 3 0 0 1 3-3h28a3 3 0 0 1 3 3v25a3 3 0 0 1-3 3ZM4 24.5A1.5 1.5 0 0 0 5.5 26H11v-2H6.5a.5.5 0 0 1-.5-.5v-3a.5.5 0 0 1 .5-.5H11v-2H5.5A1.5 1.5 0 0 0 4 19.5Zm8-18A1.5 1.5 0 0 0 10.5 5h-5A1.5 1.5 0 0 0 4 6.5v5A1.5 1.5 0 0 0 5.5 13H9v-2H6.5a.5.5 0 0 1-.5-.5v-3a.5.5 0 0 1 .5-.5h3a.5.5 0 0 1 .5.5v6a.5.5 0 0 1-.5.5H4v2h6.5a1.5 1.5 0 0 0 1.5-1.5Zm0 13v5a1.5 1.5 0 0 0 1.5 1.5h5a1.5 1.5 0 0 0 1.5-1.5v-5a1.5 1.5 0 0 0-1.5-1.5h-5a1.5 1.5 0 0 0-1.5 1.5Zm9-13A1.5 1.5 0 0 0 19.5 5h-5A1.5 1.5 0 0 0 13 6.5v5a1.5 1.5 0 0 0 1.5 1.5h5a1.5 1.5 0 0 0 1.5-1.5Zm9 0A1.5 1.5 0 0 0 28.5 5h-5A1.5 1.5 0 0 0 22 6.5v5a1.5 1.5 0 0 0 1.5 1.5H27v-2h-2.5a.5.5 0 0 1-.5-.5v-3a.5.5 0 0 1 .5-.5h3a.5.5 0 0 1 .5.5v6a.5.5 0 0 1-.5.5H22v2h6.5a1.5 1.5 0 0 0 1.5-1.5ZM30 18h-7.5a1.5 1.5 0 0 0-1.5 1.5V26h2v-5.5a.5.5 0 0 1 .5-.5h1v6h2v-6H28v6h2Zm-11.5-7h-3a.5.5 0 0 1-.5-.5v-3a.5.5 0 0 1 .5-.5h3a.5.5 0 0 1 .5.5v3a.5.5 0 0 1-.5.5Zm-4 9h3a.5.5 0 0 1 .5.5v3a.5.5 0 0 1-.5.5h-3a.5.5 0 0 1-.5-.5v-3a.5.5 0 0 1 .5-.5Z" fill="currentColor"></path>
</symbol></defs><use xlink:href="#svg-icon-connection-gog"></use></svg>